<svg width="116" height="87" viewBox="0 0 116 87" fill="none" xmlns="http://www.w3.org/2000/svg">
<path d="M3 44.5042V18.1597V18C3 9.71573 9.71573 3 18 3H98C106.284 3 113 9.71574 113 18V55.6965C113 57.7994 111.295 59.5042 109.192 59.5042C102.183 59.5042 96.5 65.1867 96.5 72.1965V83.636C96.5 84.0909 95.9282 84.2932 95.6421 83.9395L80.3777 65.0702C77.5298 61.5498 73.2439 59.5042 68.7158 59.5042H18C9.71573 59.5042 3 52.7885 3 44.5042Z" stroke="url(#paint0_angular_1_32)" stroke-width="5"/>
<path d="M18.0469 21.25H21.7656L27.9844 38.375L34.1875 21.25H37.9219L29.4688 44H26.4844L18.0469 21.25ZM16.1719 21.25H19.8125L20.4688 36.9844V44H16.1719V21.25ZM36.1406 21.25H39.7969V44H35.5V36.9844L36.1406 21.25ZM53.5 24.7031L47.0156 44H42.4688L50.9688 21.25H53.875L53.5 24.7031ZM58.9219 44L52.4062 24.7031L52.0156 21.25H54.9375L63.4844 44H58.9219ZM58.625 35.5469V38.9375H46.4219V35.5469H58.625ZM70.125 21.25V44H65.8281V21.25H70.125ZM83.7812 21.25L74.6562 32.3438L69.4375 37.9219L68.6719 33.75L72.2969 29.0469L78.5156 21.25H83.7812ZM79 44L71.9219 33.3438L75 30.5625L84.1094 44H79ZM101.188 40.625V44H89.0938V40.625H101.188ZM90.4062 21.25V44H86.1094V21.25H90.4062ZM99.6094 30.6406V33.9375H89.0938V30.6406H99.6094ZM101.141 21.25V24.6406H89.0938V21.25H101.141Z" fill="url(#paint1_angular_1_32)"/>
<path d="M20.7383 76.4985L23.5801 78.7544L22.291 79.875L19.4932 77.6338L20.7383 76.4985ZM23.6313 72.397V72.9463C23.6313 73.752 23.5239 74.4771 23.3091 75.1216C23.0942 75.7612 22.7866 76.3057 22.3862 76.7549C21.9907 77.2041 21.5195 77.5483 20.9727 77.7876C20.4258 78.0269 19.8203 78.1465 19.1562 78.1465C18.4971 78.1465 17.8916 78.0269 17.3398 77.7876C16.793 77.5483 16.3193 77.2041 15.9189 76.7549C15.5186 76.3057 15.2085 75.7612 14.9888 75.1216C14.769 74.4771 14.6592 73.752 14.6592 72.9463V72.397C14.6592 71.5864 14.7666 70.8613 14.9814 70.2217C15.2012 69.582 15.5088 69.0376 15.9043 68.5884C16.3047 68.1343 16.7783 67.7876 17.3252 67.5483C17.877 67.3091 18.4824 67.1895 19.1416 67.1895C19.8057 67.1895 20.4111 67.3091 20.958 67.5483C21.5098 67.7876 21.9834 68.1343 22.3789 68.5884C22.7793 69.0376 23.0869 69.582 23.3018 70.2217C23.5215 70.8613 23.6313 71.5864 23.6313 72.397ZM21.5952 72.9463V72.3823C21.5952 71.8013 21.5415 71.291 21.4341 70.8516C21.3267 70.4072 21.1655 70.0337 20.9507 69.731C20.7407 69.4282 20.4844 69.2012 20.1816 69.0498C19.8789 68.8936 19.5322 68.8154 19.1416 68.8154C18.7559 68.8154 18.4116 68.8936 18.1089 69.0498C17.8062 69.2012 17.5498 69.4282 17.3398 69.731C17.1299 70.0337 16.9688 70.4072 16.8564 70.8516C16.749 71.291 16.6953 71.8013 16.6953 72.3823V72.9463C16.6953 73.5225 16.749 74.0327 16.8564 74.4771C16.9688 74.9214 17.1299 75.2974 17.3398 75.605C17.5547 75.9077 17.8135 76.1372 18.1162 76.2935C18.4238 76.4497 18.7705 76.5278 19.1562 76.5278C19.5469 76.5278 19.8936 76.4497 20.1963 76.2935C20.499 76.1372 20.7529 75.9077 20.958 75.605C21.168 75.2974 21.3267 74.9214 21.4341 74.4771C21.5415 74.0327 21.5952 73.5225 21.5952 72.9463ZM29.9302 76.1177V70.0752H31.8784V78H30.0474L29.9302 76.1177ZM30.1792 74.4771L30.7798 74.4624C30.7798 74.9946 30.7212 75.4854 30.604 75.9346C30.4868 76.3838 30.3037 76.7744 30.0547 77.1064C29.8105 77.4336 29.5005 77.6899 29.1245 77.8755C28.7485 78.0562 28.3042 78.1465 27.7915 78.1465C27.4009 78.1465 27.0444 78.0928 26.7222 77.9854C26.3999 77.873 26.1216 77.6997 25.8872 77.4653C25.6577 77.2261 25.4795 76.9209 25.3525 76.5498C25.2256 76.1738 25.1621 75.7222 25.1621 75.1948V70.0752H27.0957V75.2095C27.0957 75.4731 27.125 75.6929 27.1836 75.8687C27.2471 76.0444 27.3325 76.1885 27.4399 76.3008C27.5522 76.4082 27.6816 76.4863 27.8281 76.5352C27.9795 76.5791 28.1406 76.6011 28.3115 76.6011C28.7803 76.6011 29.1489 76.5083 29.4175 76.3228C29.6909 76.1323 29.8862 75.8784 30.0034 75.561C30.1206 75.2388 30.1792 74.8774 30.1792 74.4771ZM37.1519 78.1465C36.5513 78.1465 36.0117 78.0488 35.5332 77.8535C35.0547 77.6582 34.647 77.3872 34.3101 77.0405C33.978 76.689 33.7217 76.2812 33.541 75.8174C33.3652 75.3486 33.2773 74.8457 33.2773 74.3086V74.0156C33.2773 73.4053 33.3652 72.8511 33.541 72.353C33.7168 71.8501 33.9658 71.418 34.2881 71.0566C34.6104 70.6953 34.9961 70.417 35.4453 70.2217C35.8945 70.0264 36.3901 69.9287 36.9321 69.9287C37.4937 69.9287 37.9893 70.0239 38.4189 70.2144C38.8486 70.3999 39.2075 70.6636 39.4956 71.0054C39.7837 71.3472 40.001 71.7573 40.1475 72.2358C40.2939 72.7095 40.3672 73.2344 40.3672 73.8105V74.6235H34.1562V73.2905H38.4629V73.144C38.4531 72.8364 38.3945 72.5557 38.2871 72.3018C38.1797 72.043 38.0137 71.8379 37.7891 71.6865C37.5645 71.5303 37.2739 71.4521 36.9175 71.4521C36.6294 71.4521 36.3779 71.5156 36.1631 71.6426C35.9531 71.7646 35.7773 71.9404 35.6357 72.1699C35.499 72.3945 35.3965 72.6631 35.3281 72.9756C35.2598 73.2881 35.2256 73.6348 35.2256 74.0156V74.3086C35.2256 74.6406 35.2695 74.9482 35.3574 75.2314C35.4502 75.5146 35.5845 75.7612 35.7603 75.9712C35.9409 76.1763 36.1558 76.3374 36.4048 76.4546C36.6587 76.5669 36.9468 76.623 37.269 76.623C37.6743 76.623 38.0405 76.5449 38.3677 76.3887C38.6997 76.2275 38.9878 75.9907 39.2319 75.6782L40.2061 76.689C40.04 76.9331 39.8154 77.1675 39.5322 77.3921C39.2539 77.6167 38.917 77.7998 38.5215 77.9414C38.126 78.0781 37.6694 78.1465 37.1519 78.1465ZM46.0215 75.832C46.0215 75.666 45.9775 75.5171 45.8896 75.3853C45.8018 75.2534 45.6357 75.1338 45.3916 75.0264C45.1523 74.9141 44.8008 74.8091 44.3369 74.7114C43.9268 74.6235 43.5483 74.5137 43.2017 74.3818C42.855 74.25 42.5571 74.0913 42.3081 73.9058C42.0591 73.7153 41.8638 73.4932 41.7222 73.2393C41.5854 72.9805 41.5171 72.6826 41.5171 72.3457C41.5171 72.0186 41.5879 71.7109 41.7295 71.4229C41.8711 71.1299 42.0762 70.8735 42.3447 70.6538C42.6133 70.4292 42.9404 70.2534 43.3262 70.1265C43.7119 69.9946 44.1465 69.9287 44.6299 69.9287C45.3037 69.9287 45.8823 70.0386 46.3657 70.2583C46.854 70.478 47.2275 70.7808 47.4863 71.1665C47.7451 71.5474 47.8745 71.9771 47.8745 72.4556H45.9409C45.9409 72.2456 45.8921 72.0552 45.7944 71.8843C45.7017 71.7134 45.5576 71.5767 45.3623 71.4741C45.167 71.3667 44.9204 71.313 44.6226 71.313C44.354 71.313 44.127 71.3569 43.9414 71.4448C43.7607 71.5327 43.624 71.6475 43.5312 71.7891C43.4385 71.9307 43.3921 72.0869 43.3921 72.2578C43.3921 72.3848 43.4165 72.4995 43.4653 72.6021C43.519 72.6997 43.6045 72.79 43.7217 72.873C43.8389 72.9561 43.9976 73.0317 44.1978 73.1001C44.4028 73.1685 44.6543 73.2344 44.9521 73.2979C45.543 73.415 46.0581 73.5713 46.4976 73.7666C46.9419 73.957 47.2886 74.2109 47.5376 74.5283C47.7866 74.8457 47.9111 75.251 47.9111 75.7441C47.9111 76.0957 47.8354 76.418 47.6841 76.7109C47.5327 76.999 47.313 77.2505 47.0249 77.4653C46.7368 77.6802 46.3926 77.8486 45.9922 77.9707C45.5918 78.0879 45.1401 78.1465 44.6372 78.1465C43.9097 78.1465 43.2944 78.0171 42.7915 77.7583C42.2886 77.4946 41.9077 77.1626 41.6489 76.7622C41.3901 76.3569 41.2607 75.937 41.2607 75.5024H43.1138C43.1284 75.8101 43.2114 76.0566 43.3628 76.2422C43.5142 76.4277 43.7046 76.562 43.9341 76.645C44.1685 76.7231 44.415 76.7622 44.6738 76.7622C44.9668 76.7622 45.2134 76.7231 45.4136 76.645C45.6138 76.562 45.7651 76.4521 45.8677 76.3154C45.9702 76.1738 46.0215 76.0127 46.0215 75.832ZM53.1333 70.0752V71.4668H48.5923V70.0752H53.1333ZM49.8081 68.127H51.749V75.7148C51.749 75.9492 51.7808 76.1299 51.8442 76.2568C51.9077 76.3838 52.0029 76.4692 52.1299 76.5132C52.2568 76.5571 52.4082 76.5791 52.584 76.5791C52.7109 76.5791 52.8281 76.5718 52.9355 76.5571C53.043 76.5425 53.1333 76.5278 53.2065 76.5132L53.2139 77.9634C53.0527 78.0171 52.8696 78.061 52.6646 78.0952C52.4644 78.1294 52.2373 78.1465 51.9834 78.1465C51.5488 78.1465 51.168 78.0732 50.8408 77.9268C50.5137 77.7754 50.2598 77.5337 50.0791 77.2017C49.8984 76.8647 49.8081 76.4204 49.8081 75.8687V68.127ZM56.4731 70.0752V78H54.5322V70.0752H56.4731ZM54.4004 68.0024C54.4004 67.7144 54.498 67.4751 54.6934 67.2847C54.8936 67.0942 55.1621 66.999 55.499 66.999C55.8359 66.999 56.1021 67.0942 56.2974 67.2847C56.4976 67.4751 56.5977 67.7144 56.5977 68.0024C56.5977 68.2856 56.4976 68.5225 56.2974 68.7129C56.1021 68.9033 55.8359 68.9985 55.499 68.9985C55.1621 68.9985 54.8936 68.9033 54.6934 68.7129C54.498 68.5225 54.4004 68.2856 54.4004 68.0024ZM57.9746 74.1182V73.9644C57.9746 73.3833 58.0576 72.8486 58.2236 72.3604C58.3896 71.8672 58.6313 71.4399 58.9487 71.0786C59.2661 70.7173 59.6543 70.4365 60.1133 70.2363C60.5723 70.0312 61.0947 69.9287 61.6807 69.9287C62.2764 69.9287 62.8037 70.0312 63.2627 70.2363C63.7266 70.4365 64.1172 70.7173 64.4346 71.0786C64.752 71.4399 64.9937 71.8672 65.1597 72.3604C65.3257 72.8486 65.4087 73.3833 65.4087 73.9644V74.1182C65.4087 74.6943 65.3257 75.229 65.1597 75.7222C64.9937 76.2104 64.752 76.6377 64.4346 77.0039C64.1172 77.3652 63.729 77.646 63.27 77.8462C62.811 78.0464 62.2861 78.1465 61.6953 78.1465C61.1094 78.1465 60.5845 78.0464 60.1206 77.8462C59.6567 77.646 59.2661 77.3652 58.9487 77.0039C58.6313 76.6377 58.3896 76.2104 58.2236 75.7222C58.0576 75.229 57.9746 74.6943 57.9746 74.1182ZM59.9082 73.9644V74.1182C59.9082 74.4648 59.9424 74.7896 60.0107 75.0923C60.0791 75.395 60.1841 75.6611 60.3257 75.8906C60.4673 76.1201 60.6504 76.3008 60.875 76.4326C61.1045 76.5596 61.3779 76.623 61.6953 76.623C62.0078 76.623 62.2764 76.5596 62.501 76.4326C62.7256 76.3008 62.9087 76.1201 63.0503 75.8906C63.1968 75.6611 63.3042 75.395 63.3726 75.0923C63.4409 74.7896 63.4751 74.4648 63.4751 74.1182V73.9644C63.4751 73.6226 63.4409 73.3027 63.3726 73.0049C63.3042 72.7021 63.1968 72.436 63.0503 72.2065C62.9087 71.9722 62.7231 71.7891 62.4937 71.6572C62.269 71.5205 61.998 71.4521 61.6807 71.4521C61.3682 71.4521 61.0996 71.5205 60.875 71.6572C60.6504 71.7891 60.4673 71.9722 60.3257 72.2065C60.1841 72.436 60.0791 72.7021 60.0107 73.0049C59.9424 73.3027 59.9082 73.6226 59.9082 73.9644ZM68.7119 71.7671V78H66.7783V70.0752H68.5947L68.7119 71.7671ZM68.4043 73.752H67.833C67.8379 73.1758 67.916 72.6533 68.0674 72.1846C68.2188 71.7158 68.4312 71.313 68.7046 70.9761C68.9829 70.6392 69.3125 70.3804 69.6934 70.1997C70.0742 70.019 70.499 69.9287 70.9678 69.9287C71.3486 69.9287 71.6929 69.9824 72.0005 70.0898C72.3081 70.1973 72.5718 70.3682 72.7915 70.6025C73.0161 70.8369 73.187 71.1445 73.3042 71.5254C73.4263 71.9014 73.4873 72.3652 73.4873 72.917V78H71.5391V72.9023C71.5391 72.541 71.4854 72.2554 71.3779 72.0454C71.2754 71.8354 71.124 71.6865 70.9238 71.5986C70.7285 71.5107 70.4868 71.4668 70.1987 71.4668C69.9009 71.4668 69.6396 71.5278 69.415 71.6499C69.1953 71.7671 69.0098 71.9307 68.8584 72.1406C68.7119 72.3506 68.5996 72.5923 68.5215 72.8657C68.4434 73.1392 68.4043 73.4346 68.4043 73.752Z" fill="#128C8E"/>
<defs>
<radialGradient id="paint0_angular_1_32" cx="0" cy="0" r="1" gradientUnits="userSpaceOnUse" gradientTransform="translate(69.5 72) rotate(135) scale(4.24264 5.69135)">
<stop stop-color="#36ACAE"/>
<stop offset="1" stop-color="#0C6365"/>
</radialGradient>
<radialGradient id="paint1_angular_1_32" cx="0" cy="0" r="1" gradientUnits="userSpaceOnUse" gradientTransform="translate(61.5 8.50009) rotate(85.1864) scale(47.6681 0)">
<stop offset="0.442708" stop-color="#1BAAAD"/>
<stop offset="0.75" stop-color="#167173"/>
</radialGradient>
</defs>
</svg>
